# xmcd
#
# Track frame offsets: 
#        150
#        21279
#        39698
#        57222
#        77170
#        88169
#        109563
#        132937
#        160042
#        176090
#        184000
#        206345
#        230436
#        246036
#
# Disc length: 3597 seconds
#
# Revision: 0
# Processed by: cddbd v1.5.1PL0 Copyright (c) Steve Scherf et al.
# Submitted via: ExactAudioCopy v0.95a5
#
DISCID=b20e0b0e
DTITLE=Various Artist - 100% SOUKOUSS VOL 2
DYEAR=1900
DGENRE=soukouss
TTITLE0=feu vert (Pierre Belkos)
TTITLE1=C'est chic (Claude Bicko)
TTITLE2=boom africa (Nadim Modh)
TTITLE3=Papa de gloire (Caude Bicko)
TTITLE4=Makinu mabela (Jolino)
TTITLE5=Coyabile (Claude Bicko)
TTITLE6=More soukouss (denise Cairo)
TTITLE7=Fatimata (Sultan Zambelat)
TTITLE8=Massager (Claude Bicko)
TTITLE9=Janna (Claude Bicko)
TTITLE10=Dathy (Claude Bicko)
TTITLE11=Double impact (Guy Guy fall)
TTITLE12=Mposa (Nadim Mahd)
TTITLE13=Chege (Gloria Tukhadio)
EXTD=
EXTT0=
EXTT1=
EXTT2=
EXTT3=
EXTT4=
EXTT5=
EXTT6=
EXTT7=
EXTT8=
EXTT9=
EXTT10=
EXTT11=
EXTT12=
EXTT13=
PLAYORDER=
